<svg width="243" height="161" viewBox="0 0 243 161" fill="none" xmlns="http://www.w3.org/2000/svg">
<g opacity="0.3">
<mask id="path-1-outside-1_14_112" maskUnits="userSpaceOnUse" x="0.115173" y="0.656738" width="261" height="169" fill="black">
<rect fill="white" x="0.115173" y="0.656738" width="261" height="169"/>
<path d="M60.2583 167.945C41.1868 167.945 26.6161 160.774 16.5463 146.433C6.4765 131.938 1.44161 111.341 1.44161 84.6407C1.44161 57.6354 6.4765 37.1144 16.5463 23.0777C26.6161 9.041 41.1868 2.02266 60.2583 2.02266C79.4825 2.02266 94.0532 9.041 103.97 23.0777C114.04 37.1144 119.075 57.5591 119.075 84.4118C119.075 111.265 114.04 131.938 103.97 146.433C93.9006 160.774 79.3299 167.945 60.2583 167.945ZM60.2583 143.915C70.6333 143.915 78.2619 139.185 83.1442 129.726C88.1791 120.114 90.6966 105.009 90.6966 84.4118C90.6966 63.9671 88.1791 49.1676 83.1442 40.0132C78.2619 30.7063 70.6333 26.0528 60.2583 26.0528C50.036 26.0528 42.4073 30.7063 37.3724 40.0132C32.3376 49.1676 29.8201 63.9671 29.8201 84.4118C29.8201 105.009 32.3376 120.114 37.3724 129.726C42.4073 139.185 50.036 143.915 60.2583 143.915ZM151.712 165.657V143.915L203.892 88.3024C210.911 80.6738 215.946 73.9606 218.997 68.1629C222.048 62.2125 223.574 56.1859 223.574 50.083C223.574 34.5206 214.191 26.7394 195.425 26.7394C180.778 26.7394 167.275 32.232 154.916 43.2173L145.076 21.2468C151.484 15.449 159.494 10.7956 169.106 7.28641C178.718 3.77724 188.711 2.02266 199.086 2.02266C216.327 2.02266 229.524 5.91326 238.679 13.6945C247.986 21.4757 252.639 32.6135 252.639 47.1079C252.639 56.8725 250.274 66.2557 245.545 75.2575C240.967 84.2593 233.72 93.9476 223.803 104.323L188.33 141.398H258.818V165.657H151.712Z"/>
</mask>
<path d="M16.5463 146.433L15.4685 147.181L15.4722 147.187L16.5463 146.433ZM16.5463 23.0777L15.4799 22.3127L16.5463 23.0777ZM103.97 23.0777L102.898 23.835L102.904 23.8427L103.97 23.0777ZM103.97 146.433L105.044 147.187L105.048 147.181L103.97 146.433ZM83.1442 129.726L81.9816 129.117L81.978 129.124L83.1442 129.726ZM83.1442 40.0132L81.982 40.6229L81.988 40.6344L81.9943 40.6457L83.1442 40.0132ZM37.3724 40.0132L38.5224 40.6457L38.5268 40.6377L37.3724 40.0132ZM37.3724 129.726L36.2099 130.335L36.2139 130.343L37.3724 129.726ZM60.2583 167.945V166.633C41.5701 166.633 27.4201 159.636 17.6204 145.678L16.5463 146.433L15.4722 147.187C25.8121 161.913 40.8034 169.258 60.2583 169.258V167.945ZM16.5463 146.433L17.6241 145.684C7.76701 131.496 2.75402 111.202 2.75402 84.6407H1.44161H0.1292C0.1292 111.48 5.186 132.381 15.4685 147.181L16.5463 146.433ZM1.44161 84.6407H2.75402C2.75402 57.766 7.77011 37.5626 17.6127 23.8427L16.5463 23.0777L15.4799 22.3127C5.1829 36.6661 0.1292 57.5047 0.1292 84.6407H1.44161ZM16.5463 23.0777L17.6127 23.8427C27.4076 10.1892 41.5585 3.33507 60.2583 3.33507V2.02266V0.710251C40.815 0.710251 25.8246 7.89284 15.4799 22.3127L16.5463 23.0777ZM60.2583 2.02266V3.33507C79.1149 3.33507 93.2593 10.1917 102.899 23.835L103.97 23.0777L105.042 22.3204C94.8471 7.89027 79.85 0.710251 60.2583 0.710251V2.02266ZM103.97 23.0777L102.904 23.8427C112.747 37.5636 117.763 57.6917 117.763 84.4118H119.075H120.387C120.387 57.4265 115.333 36.6651 105.037 22.3127L103.97 23.0777ZM119.075 84.4118H117.763C117.763 111.128 112.749 131.497 102.893 145.684L103.97 146.433L105.048 147.181C115.331 132.38 120.387 111.401 120.387 84.4118H119.075ZM103.97 146.433L102.896 145.678C93.0966 159.636 78.9466 166.633 60.2583 166.633V167.945V169.258C79.7132 169.258 94.7046 161.913 105.044 147.187L103.97 146.433ZM60.2583 143.915V145.228C65.6513 145.228 70.3999 143.996 74.4526 141.483C78.5034 138.972 81.7808 135.229 84.3104 130.328L83.1442 129.726L81.978 129.124C79.6253 133.682 76.6473 137.034 73.0694 139.252C69.4935 141.469 65.2403 142.603 60.2583 142.603V143.915ZM83.1442 129.726L84.3068 130.335C89.4939 120.432 92.009 105.063 92.009 84.4118H90.6966H89.3842C89.3842 104.955 86.8644 119.795 81.9816 129.117L83.1442 129.726ZM90.6966 84.4118H92.009C92.009 63.9198 89.4961 48.8388 84.2942 39.3808L83.1442 40.0132L81.9943 40.6457C86.8621 49.4963 89.3842 64.0144 89.3842 84.4118H90.6966ZM83.1442 40.0132L84.3064 39.4035C81.7745 34.5771 78.4949 30.8933 74.4445 28.4225C70.393 25.9512 65.6475 24.7404 60.2583 24.7404V26.0528V27.3652C65.2441 27.3652 69.5004 28.4813 73.0776 30.6633C76.6557 32.846 79.6316 36.1424 81.982 40.6229L83.1442 40.0132ZM60.2583 26.0528V24.7404C54.9415 24.7404 50.2351 25.953 46.1866 28.4225C42.1406 30.8906 38.8255 34.5691 36.2181 39.3888L37.3724 40.0132L38.5268 40.6377C40.9543 36.1505 43.971 32.8487 47.5535 30.6633C51.1337 28.4794 55.3528 27.3652 60.2583 27.3652V26.0528ZM37.3724 40.0132L36.2225 39.3808C31.0206 48.8388 28.5077 63.9198 28.5077 84.4118H29.8201H31.1325C31.1325 64.0144 33.6546 49.4963 38.5224 40.6457L37.3724 40.0132ZM29.8201 84.4118H28.5077C28.5077 105.063 31.0228 120.432 36.2099 130.335L37.3724 129.726L38.535 129.117C33.6523 119.795 31.1325 104.955 31.1325 84.4118H29.8201ZM37.3724 129.726L36.2139 130.343C38.8191 135.237 42.1322 138.975 46.1785 141.483C50.2282 143.994 54.9375 145.228 60.2583 145.228V143.915V142.603C55.3568 142.603 51.1406 141.471 47.5616 139.252C43.9794 137.031 40.9607 133.674 38.531 129.109L37.3724 129.726ZM151.712 165.657H150.4V166.969H151.712V165.657ZM151.712 143.915L150.755 143.017L150.4 143.396V143.915H151.712ZM203.892 88.3024L204.849 89.2005L204.858 89.191L203.892 88.3024ZM218.997 68.1629L220.158 68.7742L220.165 68.7617L218.997 68.1629ZM154.916 43.2173L153.719 43.7537L154.451 45.3874L155.788 44.1982L154.916 43.2173ZM145.076 21.2468L144.195 20.2736L143.488 20.9132L143.878 21.7833L145.076 21.2468ZM169.106 7.28642L168.656 6.0536L169.106 7.28642ZM238.679 13.6945L237.829 14.6945L237.837 14.7013L238.679 13.6945ZM245.545 75.2575L244.383 74.647L244.379 74.6548L244.375 74.6626L245.545 75.2575ZM223.803 104.323L224.751 105.23L224.752 105.229L223.803 104.323ZM188.33 141.398L187.382 140.49L185.258 142.71H188.33V141.398ZM258.818 141.398H260.131V140.085H258.818V141.398ZM258.818 165.657V166.969H260.131V165.657H258.818ZM151.712 165.657H153.025V143.915H151.712H150.4V165.657H151.712ZM151.712 143.915L152.67 144.813L204.849 89.2004L203.892 88.3024L202.935 87.4044L150.755 143.017L151.712 143.915ZM203.892 88.3024L204.858 89.191C211.914 81.5213 217.033 74.7131 220.158 68.7741L218.997 68.1629L217.836 67.5516C214.858 73.2082 209.907 79.8264 202.926 87.4139L203.892 88.3024ZM218.997 68.1629L220.165 68.7617C223.302 62.6441 224.887 56.4136 224.887 50.083H223.574H222.262C222.262 55.9583 220.795 61.7809 217.829 67.564L218.997 68.1629ZM223.574 50.083H224.887C224.887 42.0281 222.446 35.7711 217.374 31.5651C212.35 27.3981 204.956 25.427 195.425 25.427V26.7394V28.0518C204.659 28.0518 211.341 29.9713 215.699 33.5855C220.01 37.1607 222.262 42.5755 222.262 50.083H223.574ZM195.425 26.7394V25.427C180.414 25.427 166.61 31.0671 154.045 42.2363L154.916 43.2173L155.788 44.1982C167.94 33.397 181.141 28.0518 195.425 28.0518V26.7394ZM154.916 43.2173L156.114 42.6808L146.273 20.7103L145.076 21.2468L143.878 21.7833L153.719 43.7537L154.916 43.2173ZM145.076 21.2468L145.956 22.22C152.218 16.5546 160.074 11.9809 169.556 8.51923L169.106 7.28642L168.656 6.0536C158.913 9.61028 150.749 14.3435 144.195 20.2736L145.076 21.2468ZM169.106 7.28642L169.556 8.51923C179.022 5.06345 188.863 3.33507 199.086 3.33507V2.02266V0.710251C188.56 0.710251 178.414 2.49104 168.656 6.0536L169.106 7.28642ZM199.086 2.02266V3.33507C216.149 3.33507 228.997 7.18698 237.829 14.6944L238.679 13.6945L239.529 12.6945C230.052 4.63953 216.505 0.710251 199.086 0.710251V2.02266ZM238.679 13.6945L237.837 14.7013C246.787 22.1841 251.327 32.9186 251.327 47.1079H252.639H253.952C253.952 32.3083 249.185 20.7672 239.521 12.6876L238.679 13.6945ZM252.639 47.1079H251.327C251.327 56.6509 249.018 65.8255 244.383 74.647L245.545 75.2575L246.706 75.8679C251.531 66.6859 253.952 57.0941 253.952 47.1079H252.639ZM245.545 75.2575L244.375 74.6626C239.874 83.5133 232.717 93.0978 222.854 103.416L223.803 104.323L224.752 105.229C234.723 94.7974 242.06 85.0052 246.714 75.8523L245.545 75.2575ZM223.803 104.323L222.855 103.415L187.382 140.49L188.33 141.398L189.278 142.305L224.751 105.23L223.803 104.323ZM188.33 141.398V142.71H258.818V141.398V140.085H188.33V141.398ZM258.818 141.398H257.506V165.657H258.818H260.131V141.398H258.818ZM258.818 165.657V164.344H151.712V165.657V166.969H258.818V165.657Z" fill="#0571EE" mask="url(#path-1-outside-1_14_112)"/>
</g>
</svg>
