<svg width="243" height="161" viewBox="0 0 243 161" fill="none" xmlns="http://www.w3.org/2000/svg">
<g opacity="0.3">
<mask id="path-1-outside-1_14_118" maskUnits="userSpaceOnUse" x="0.115173" y="0.656738" width="259" height="169" fill="black">
<rect fill="white" x="0.115173" y="0.656738" width="259" height="169"/>
<path d="M60.2583 167.945C41.1868 167.945 26.6161 160.774 16.5463 146.433C6.4765 131.938 1.44161 111.341 1.44161 84.6407C1.44161 57.6354 6.4765 37.1144 16.5463 23.0777C26.6161 9.041 41.1868 2.02266 60.2583 2.02266C79.4825 2.02266 94.0532 9.041 103.97 23.0777C114.04 37.1144 119.075 57.5591 119.075 84.4118C119.075 111.265 114.04 131.938 103.97 146.433C93.9006 160.774 79.3299 167.945 60.2583 167.945ZM60.2583 143.915C70.6333 143.915 78.2619 139.185 83.1442 129.726C88.1791 120.114 90.6966 105.009 90.6966 84.4118C90.6966 63.9671 88.1791 49.1676 83.1442 40.0132C78.2619 30.7063 70.6333 26.0528 60.2583 26.0528C50.036 26.0528 42.4073 30.7063 37.3724 40.0132C32.3376 49.1676 29.8201 63.9671 29.8201 84.4118C29.8201 105.009 32.3376 120.114 37.3724 129.726C42.4073 139.185 50.036 143.915 60.2583 143.915ZM198.857 167.945C187.872 167.945 177.345 166.343 167.275 163.139C157.358 159.783 149.119 155.282 142.558 149.637L152.17 127.208C165.902 137.889 181.159 143.229 197.942 143.229C218.539 143.229 228.838 135.142 228.838 118.97C228.838 111.341 226.244 105.696 221.057 102.034C216.022 98.2197 208.622 96.3125 198.857 96.3125H172.996V72.0535H196.111C204.655 72.0535 211.445 69.9937 216.48 65.8743C221.514 61.6022 224.032 55.7282 224.032 48.2522C224.032 41.2338 221.667 35.8938 216.937 32.232C212.36 28.5703 205.647 26.7394 196.798 26.7394C180.93 26.7394 166.97 32.232 154.916 43.2173L145.304 21.2468C151.712 15.1439 159.723 10.4142 169.335 7.05756C178.947 3.70096 188.94 2.02266 199.315 2.02266C216.098 2.02266 229.143 5.83697 238.45 13.4656C247.757 20.9417 252.41 31.3929 252.41 44.8193C252.41 53.5159 250.198 61.1445 245.773 67.7051C241.349 74.2658 235.322 78.9955 227.694 81.8944C237.001 84.4881 244.248 89.2942 249.435 96.3125C254.623 103.178 257.216 111.57 257.216 121.487C257.216 135.829 252.029 147.195 241.654 155.587C231.279 163.826 217.014 167.945 198.857 167.945Z"/>
</mask>
<path d="M16.5463 146.433L15.4685 147.181L15.4722 147.187L16.5463 146.433ZM16.5463 23.0777L15.4799 22.3127L16.5463 23.0777ZM103.97 23.0777L102.898 23.835L102.904 23.8427L103.97 23.0777ZM103.97 146.433L105.044 147.187L105.048 147.181L103.97 146.433ZM83.1442 129.726L81.9816 129.117L81.978 129.124L83.1442 129.726ZM83.1442 40.0132L81.982 40.6229L81.988 40.6344L81.9943 40.6457L83.1442 40.0132ZM37.3724 40.0132L38.5224 40.6457L38.5268 40.6377L37.3724 40.0132ZM37.3724 129.726L36.2099 130.335L36.2139 130.343L37.3724 129.726ZM60.2583 167.945V166.633C41.5701 166.633 27.4201 159.636 17.6204 145.678L16.5463 146.433L15.4722 147.187C25.8121 161.913 40.8034 169.258 60.2583 169.258V167.945ZM16.5463 146.433L17.6241 145.684C7.76701 131.496 2.75402 111.202 2.75402 84.6407H1.44161H0.1292C0.1292 111.48 5.186 132.381 15.4685 147.181L16.5463 146.433ZM1.44161 84.6407H2.75402C2.75402 57.766 7.77011 37.5626 17.6127 23.8427L16.5463 23.0777L15.4799 22.3127C5.1829 36.6661 0.1292 57.5047 0.1292 84.6407H1.44161ZM16.5463 23.0777L17.6127 23.8427C27.4076 10.1892 41.5585 3.33507 60.2583 3.33507V2.02266V0.710251C40.815 0.710251 25.8246 7.89284 15.4799 22.3127L16.5463 23.0777ZM60.2583 2.02266V3.33507C79.1149 3.33507 93.2593 10.1917 102.899 23.835L103.97 23.0777L105.042 22.3204C94.8471 7.89027 79.85 0.710251 60.2583 0.710251V2.02266ZM103.97 23.0777L102.904 23.8427C112.747 37.5636 117.763 57.6917 117.763 84.4118H119.075H120.387C120.387 57.4265 115.333 36.6651 105.037 22.3127L103.97 23.0777ZM119.075 84.4118H117.763C117.763 111.128 112.749 131.497 102.893 145.684L103.97 146.433L105.048 147.181C115.331 132.38 120.387 111.401 120.387 84.4118H119.075ZM103.97 146.433L102.896 145.678C93.0966 159.636 78.9466 166.633 60.2583 166.633V167.945V169.258C79.7132 169.258 94.7046 161.913 105.044 147.187L103.97 146.433ZM60.2583 143.915V145.228C65.6513 145.228 70.3999 143.996 74.4526 141.483C78.5034 138.972 81.7808 135.229 84.3104 130.328L83.1442 129.726L81.978 129.124C79.6253 133.682 76.6473 137.034 73.0694 139.252C69.4935 141.469 65.2403 142.603 60.2583 142.603V143.915ZM83.1442 129.726L84.3068 130.335C89.4939 120.432 92.009 105.063 92.009 84.4118H90.6966H89.3842C89.3842 104.955 86.8644 119.795 81.9816 129.117L83.1442 129.726ZM90.6966 84.4118H92.009C92.009 63.9198 89.4961 48.8388 84.2942 39.3808L83.1442 40.0132L81.9943 40.6457C86.8621 49.4963 89.3842 64.0144 89.3842 84.4118H90.6966ZM83.1442 40.0132L84.3064 39.4035C81.7745 34.5771 78.4949 30.8933 74.4445 28.4225C70.393 25.9512 65.6475 24.7404 60.2583 24.7404V26.0528V27.3652C65.2441 27.3652 69.5004 28.4813 73.0776 30.6633C76.6557 32.846 79.6316 36.1424 81.982 40.6229L83.1442 40.0132ZM60.2583 26.0528V24.7404C54.9415 24.7404 50.2351 25.953 46.1866 28.4225C42.1406 30.8906 38.8255 34.5691 36.2181 39.3888L37.3724 40.0132L38.5268 40.6377C40.9543 36.1505 43.971 32.8487 47.5535 30.6633C51.1337 28.4794 55.3528 27.3652 60.2583 27.3652V26.0528ZM37.3724 40.0132L36.2225 39.3808C31.0206 48.8388 28.5077 63.9198 28.5077 84.4118H29.8201H31.1325C31.1325 64.0144 33.6546 49.4963 38.5224 40.6457L37.3724 40.0132ZM29.8201 84.4118H28.5077C28.5077 105.063 31.0228 120.432 36.2099 130.335L37.3724 129.726L38.535 129.117C33.6523 119.795 31.1325 104.955 31.1325 84.4118H29.8201ZM37.3724 129.726L36.2139 130.343C38.8191 135.237 42.1322 138.975 46.1785 141.483C50.2282 143.994 54.9375 145.228 60.2583 145.228V143.915V142.603C55.3568 142.603 51.1406 141.471 47.5616 139.252C43.9794 137.031 40.9607 133.674 38.531 129.109L37.3724 129.726ZM167.275 163.139L166.854 164.382L166.865 164.386L166.877 164.39L167.275 163.139ZM142.558 149.637L141.352 149.12L140.973 150.004L141.702 150.631L142.558 149.637ZM152.17 127.208L152.976 126.173L151.634 125.129L150.964 126.691L152.17 127.208ZM221.057 102.034L220.264 103.08L220.282 103.093L220.3 103.106L221.057 102.034ZM172.996 96.3125H171.684V97.6249H172.996V96.3125ZM172.996 72.0535V70.7411H171.684V72.0535H172.996ZM216.48 65.8743L217.311 66.89L217.32 66.8826L217.329 66.875L216.48 65.8743ZM216.937 32.232L216.117 33.2569L216.126 33.2634L216.134 33.2698L216.937 32.232ZM154.916 43.2173L153.714 43.7433L154.448 45.4202L155.801 44.1872L154.916 43.2173ZM145.304 21.2468L144.399 20.2964L143.734 20.9305L144.102 21.7728L145.304 21.2468ZM169.335 7.05756L168.902 5.81853L169.335 7.05756ZM238.45 13.4656L237.618 14.4807L237.628 14.4888L238.45 13.4656ZM245.773 67.7052L244.685 66.9713L245.773 67.7052ZM227.694 81.8944L227.227 80.6676L223.494 82.0864L227.341 83.1586L227.694 81.8944ZM249.435 96.3125L248.38 97.0926L248.388 97.1037L249.435 96.3125ZM241.654 155.587L242.47 156.615L242.479 156.607L241.654 155.587ZM198.857 167.945V166.633C188.002 166.633 177.609 165.05 167.673 161.889L167.275 163.139L166.877 164.39C177.08 167.636 187.743 169.258 198.857 169.258V167.945ZM167.275 163.139L167.696 161.896C157.905 158.583 149.823 154.157 143.414 148.642L142.558 149.637L141.702 150.631C148.414 156.407 156.81 160.983 166.854 164.382L167.275 163.139ZM142.558 149.637L143.764 150.154L153.376 127.725L152.17 127.208L150.964 126.691L141.352 149.12L142.558 149.637ZM152.17 127.208L151.364 128.244C165.317 139.097 180.856 144.541 197.942 144.541V143.229V141.916C181.462 141.916 166.486 136.68 152.976 126.173L152.17 127.208ZM197.942 143.229V144.541C208.377 144.541 216.445 142.499 221.924 138.196C227.465 133.846 230.15 127.354 230.15 118.97H228.838H227.525C227.525 126.758 225.062 132.395 220.303 136.132C215.485 139.915 208.105 141.916 197.942 141.916V143.229ZM228.838 118.97H230.15C230.15 111.012 227.422 104.921 221.814 100.962L221.057 102.034L220.3 103.106C225.066 106.471 227.525 111.67 227.525 118.97H228.838ZM221.057 102.034L221.849 100.988C216.492 96.9292 208.761 95.0001 198.857 95.0001V96.3125V97.6249C208.483 97.6249 215.552 99.5101 220.264 103.08L221.057 102.034ZM198.857 96.3125V95.0001H172.996V96.3125V97.6249H198.857V96.3125ZM172.996 96.3125H174.309V72.0535H172.996H171.684V96.3125H172.996ZM172.996 72.0535V73.3659H196.111V72.0535V70.7411H172.996V72.0535ZM196.111 72.0535V73.3659C204.862 73.3659 211.976 71.2543 217.311 66.89L216.48 65.8743L215.648 64.8585C210.913 68.7332 204.448 70.7411 196.111 70.7411V72.0535ZM216.48 65.8743L217.329 66.875C222.698 62.3189 225.344 56.0566 225.344 48.2522H224.032H222.719C222.719 55.3998 220.331 60.8856 215.63 64.8736L216.48 65.8743ZM224.032 48.2522H225.344C225.344 40.907 222.849 35.1494 217.741 31.1943L216.937 32.232L216.134 33.2698C220.485 36.6382 222.719 41.5606 222.719 48.2522H224.032ZM216.937 32.232L217.757 31.2072C212.855 27.2853 205.8 25.427 196.798 25.427V26.7394V28.0518C205.494 28.0518 211.865 29.8552 216.117 33.2569L216.937 32.232ZM196.798 26.7394V25.427C180.593 25.427 166.32 31.0485 154.032 42.2473L154.916 43.2173L155.801 44.1872C167.619 33.4156 181.267 28.0518 196.798 28.0518V26.7394ZM154.916 43.2173L156.119 42.6912L146.507 20.7208L145.304 21.2468L144.102 21.7728L153.714 43.7433L154.916 43.2173ZM145.304 21.2468L146.21 22.1972C152.464 16.241 160.305 11.6009 169.767 8.29659L169.335 7.05756L168.902 5.81853C159.14 9.22743 150.961 14.0468 144.399 20.2964L145.304 21.2468ZM169.335 7.05756L169.767 8.29659C179.238 4.98949 189.085 3.33507 199.315 3.33507V2.02266V0.710251C188.796 0.710251 178.656 2.41242 168.902 5.81853L169.335 7.05756ZM199.315 2.02266V3.33507C215.913 3.33507 228.623 7.10786 237.618 14.4806L238.45 13.4656L239.282 12.4506C229.663 4.56609 216.283 0.710251 199.315 0.710251V2.02266ZM238.45 13.4656L237.628 14.4888C246.584 21.6826 251.098 31.7345 251.098 44.8193H252.41H253.723C253.723 31.0513 248.93 20.2008 239.272 12.4424L238.45 13.4656ZM252.41 44.8193H251.098C251.098 53.2814 248.949 60.6489 244.685 66.9713L245.773 67.7052L246.862 68.439C251.447 61.6402 253.723 53.7504 253.723 44.8193H252.41ZM245.773 67.7052L244.685 66.9713C240.417 73.3 234.611 77.8617 227.227 80.6676L227.694 81.8944L228.16 83.1212C236.033 80.1293 242.281 75.2315 246.862 68.439L245.773 67.7052ZM227.694 81.8944L227.341 83.1586C236.398 85.6827 243.385 90.3348 248.38 97.0926L249.435 96.3125L250.491 95.5324C245.111 88.2535 237.603 83.2935 228.046 80.6302L227.694 81.8944ZM249.435 96.3125L248.388 97.1037C253.378 103.708 255.904 111.81 255.904 121.487H257.216H258.529C258.529 111.33 255.867 102.649 250.482 95.5213L249.435 96.3125ZM257.216 121.487H255.904C255.904 135.467 250.87 146.445 240.829 154.567L241.654 155.587L242.479 156.607C253.188 147.946 258.529 136.191 258.529 121.487H257.216ZM241.654 155.587L240.838 154.559C230.768 162.556 216.826 166.633 198.857 166.633V167.945V169.258C217.201 169.258 231.79 165.096 242.47 156.615L241.654 155.587Z" fill="#0571EE" mask="url(#path-1-outside-1_14_118)"/>
</g>
</svg>
