<svg width="263" height="161" viewBox="0 0 263 161" fill="none" xmlns="http://www.w3.org/2000/svg">
<g opacity="0.3">
<mask id="path-1-outside-1_14_124" maskUnits="userSpaceOnUse" x="0.115234" y="0.656738" width="267" height="169" fill="black">
<rect fill="white" x="0.115234" y="0.656738" width="267" height="169"/>
<path d="M60.2584 167.945C41.1868 167.945 26.6161 160.774 16.5464 146.433C6.47656 131.938 1.44167 111.341 1.44167 84.6407C1.44167 57.6354 6.47656 37.1144 16.5464 23.0777C26.6161 9.041 41.1868 2.02266 60.2584 2.02266C79.4825 2.02266 94.0532 9.041 103.97 23.0777C114.04 37.1144 119.075 57.5591 119.075 84.4118C119.075 111.265 114.04 131.938 103.97 146.433C93.9006 160.774 79.33 167.945 60.2584 167.945ZM60.2584 143.915C70.6333 143.915 78.262 139.185 83.1443 129.726C88.1792 120.114 90.6966 105.009 90.6966 84.4118C90.6966 63.9671 88.1792 49.1676 83.1443 40.0132C78.262 30.7063 70.6333 26.0528 60.2584 26.0528C50.036 26.0528 42.4074 30.7063 37.3725 40.0132C32.3376 49.1676 29.8202 63.9671 29.8202 84.4118C29.8202 105.009 32.3376 120.114 37.3725 129.726C42.4074 139.185 50.036 143.915 60.2584 143.915ZM213.276 165.657V134.99H143.016V113.477L218.31 4.31125H242.569V110.731H265.227V134.99H242.569V165.657H213.276ZM213.276 110.731V49.1676L171.166 110.731H213.276Z"/>
</mask>
<path d="M16.5464 146.433L15.4685 147.181L15.4723 147.187L16.5464 146.433ZM16.5464 23.0777L15.48 22.3127L16.5464 23.0777ZM103.97 23.0777L102.899 23.835L102.904 23.8427L103.97 23.0777ZM103.97 146.433L105.045 147.187L105.048 147.181L103.97 146.433ZM83.1443 129.726L81.9817 129.117L81.978 129.124L83.1443 129.726ZM83.1443 40.0132L81.9821 40.6229L81.9881 40.6344L81.9943 40.6457L83.1443 40.0132ZM37.3725 40.0132L38.5225 40.6457L38.5268 40.6377L37.3725 40.0132ZM37.3725 129.726L36.2099 130.335L36.214 130.343L37.3725 129.726ZM60.2584 167.945V166.633C41.5702 166.633 27.4202 159.636 17.6204 145.678L16.5464 146.433L15.4723 147.187C25.8121 161.913 40.8035 169.258 60.2584 169.258V167.945ZM16.5464 146.433L17.6242 145.684C7.76707 131.496 2.75408 111.202 2.75408 84.6407H1.44167H0.129261C0.129261 111.48 5.18606 132.381 15.4685 147.181L16.5464 146.433ZM1.44167 84.6407H2.75408C2.75408 57.766 7.77017 37.5626 17.6127 23.8427L16.5464 23.0777L15.48 22.3127C5.18296 36.6661 0.129261 57.5047 0.129261 84.6407H1.44167ZM16.5464 23.0777L17.6127 23.8427C27.4077 10.1892 41.5586 3.33507 60.2584 3.33507V2.02266V0.710251C40.8151 0.710251 25.8246 7.89284 15.48 22.3127L16.5464 23.0777ZM60.2584 2.02266V3.33507C79.115 3.33507 93.2593 10.1917 102.899 23.835L103.97 23.0777L105.042 22.3204C94.8471 7.89027 79.8501 0.710251 60.2584 0.710251V2.02266ZM103.97 23.0777L102.904 23.8427C112.747 37.5636 117.763 57.6917 117.763 84.4118H119.075H120.388C120.388 57.4265 115.333 36.6651 105.037 22.3127L103.97 23.0777ZM119.075 84.4118H117.763C117.763 111.128 112.749 131.497 102.893 145.684L103.97 146.433L105.048 147.181C115.331 132.38 120.388 111.401 120.388 84.4118H119.075ZM103.97 146.433L102.896 145.678C93.0966 159.636 78.9466 166.633 60.2584 166.633V167.945V169.258C79.7133 169.258 94.7047 161.913 105.045 147.187L103.97 146.433ZM60.2584 143.915V145.228C65.6514 145.228 70.3999 143.996 74.4526 141.483C78.5034 138.972 81.7809 135.229 84.3105 130.328L83.1443 129.726L81.978 129.124C79.6254 133.682 76.6473 137.034 73.0695 139.252C69.4936 141.469 65.2403 142.603 60.2584 142.603V143.915ZM83.1443 129.726L84.3068 130.335C89.4939 120.432 92.009 105.063 92.009 84.4118H90.6966H89.3842C89.3842 104.955 86.8644 119.795 81.9817 129.117L83.1443 129.726ZM90.6966 84.4118H92.009C92.009 63.9198 89.4962 48.8388 84.2942 39.3808L83.1443 40.0132L81.9943 40.6457C86.8622 49.4963 89.3842 64.0144 89.3842 84.4118H90.6966ZM83.1443 40.0132L84.3065 39.4035C81.7746 34.5771 78.495 30.8933 74.4445 28.4225C70.3931 25.9512 65.6475 24.7404 60.2584 24.7404V26.0528V27.3652C65.2442 27.3652 69.5004 28.4813 73.0776 30.6633C76.6557 32.846 79.6317 36.1424 81.9821 40.6229L83.1443 40.0132ZM60.2584 26.0528V24.7404C54.9415 24.7404 50.2352 25.953 46.1867 28.4225C42.1406 30.8906 38.8256 34.5691 36.2182 39.3888L37.3725 40.0132L38.5268 40.6377C40.9543 36.1505 43.971 32.8487 47.5536 30.6633C51.1338 28.4794 55.3529 27.3652 60.2584 27.3652V26.0528ZM37.3725 40.0132L36.2226 39.3808C31.0206 48.8388 28.5078 63.9198 28.5078 84.4118H29.8202H31.1326C31.1326 64.0144 33.6546 49.4963 38.5225 40.6457L37.3725 40.0132ZM29.8202 84.4118H28.5078C28.5078 105.063 31.0229 120.432 36.2099 130.335L37.3725 129.726L38.5351 129.117C33.6523 119.795 31.1326 104.955 31.1326 84.4118H29.8202ZM37.3725 129.726L36.214 130.343C38.8191 135.237 42.1322 138.975 46.1786 141.483C50.2283 143.994 54.9376 145.228 60.2584 145.228V143.915V142.603C55.3568 142.603 51.1407 141.471 47.5617 139.252C43.9794 137.031 40.9608 133.674 38.531 129.109L37.3725 129.726ZM213.276 165.657H211.963V166.969H213.276V165.657ZM213.276 134.99H214.588V133.677H213.276V134.99ZM143.016 134.99H141.703V136.302H143.016V134.99ZM143.016 113.477L141.936 112.732L141.703 113.068V113.477H143.016ZM218.31 4.31125V2.99884H217.621L217.23 3.56609L218.31 4.31125ZM242.57 4.31125H243.882V2.99884H242.57V4.31125ZM242.57 110.731H241.257V112.043H242.57V110.731ZM265.227 110.731H266.539V109.418H265.227V110.731ZM265.227 134.99V136.302H266.539V134.99H265.227ZM242.57 134.99V133.677H241.257V134.99H242.57ZM242.57 165.657V166.969H243.882V165.657H242.57ZM213.276 110.731V112.043H214.588V110.731H213.276ZM213.276 49.1676H214.588V44.9243L212.192 48.4266L213.276 49.1676ZM171.166 110.731L170.082 109.99L168.678 112.043H171.166V110.731ZM213.276 165.657H214.588V134.99H213.276H211.963V165.657H213.276ZM213.276 134.99V133.677H143.016V134.99V136.302H213.276V134.99ZM143.016 134.99H144.328V113.477H143.016H141.703V134.99H143.016ZM143.016 113.477L144.096 114.222L219.391 5.0564L218.31 4.31125L217.23 3.56609L141.936 112.732L143.016 113.477ZM218.31 4.31125V5.62365H242.57V4.31125V2.99884H218.31V4.31125ZM242.57 4.31125H241.257V110.731H242.57H243.882V4.31125H242.57ZM242.57 110.731V112.043H265.227V110.731V109.418H242.57V110.731ZM265.227 110.731H263.914V134.99H265.227H266.539V110.731H265.227ZM265.227 134.99V133.677H242.57V134.99V136.302H265.227V134.99ZM242.57 134.99H241.257V165.657H242.57H243.882V134.99H242.57ZM242.57 165.657V164.344H213.276V165.657V166.969H242.57V165.657ZM213.276 110.731H214.588V49.1676H213.276H211.963V110.731H213.276ZM213.276 49.1676L212.192 48.4266L170.082 109.99L171.166 110.731L172.249 111.472L214.359 49.9085L213.276 49.1676ZM171.166 110.731V112.043H213.276V110.731V109.418H171.166V110.731Z" fill="#0571EE" mask="url(#path-1-outside-1_14_124)"/>
</g>
</svg>
