<svg width="245" height="161" viewBox="0 0 245 161" fill="none" xmlns="http://www.w3.org/2000/svg">
<g opacity="0.3">
<mask id="path-1-outside-1_14_131" maskUnits="userSpaceOnUse" x="0.115173" y="0.656738" width="264" height="169" fill="black">
<rect fill="white" x="0.115173" y="0.656738" width="264" height="169"/>
<path d="M60.2583 167.945C41.1868 167.945 26.6161 160.774 16.5463 146.433C6.4765 131.938 1.44161 111.341 1.44161 84.6407C1.44161 57.6354 6.4765 37.1144 16.5463 23.0777C26.6161 9.041 41.1868 2.02266 60.2583 2.02266C79.4825 2.02266 94.0532 9.041 103.97 23.0777C114.04 37.1144 119.075 57.5591 119.075 84.4118C119.075 111.265 114.04 131.938 103.97 146.433C93.9006 160.774 79.3299 167.945 60.2583 167.945ZM60.2583 143.915C70.6333 143.915 78.2619 139.185 83.1442 129.726C88.1791 120.114 90.6966 105.009 90.6966 84.4118C90.6966 63.9671 88.1791 49.1676 83.1442 40.0132C78.2619 30.7063 70.6333 26.0528 60.2583 26.0528C50.036 26.0528 42.4073 30.7063 37.3724 40.0132C32.3376 49.1676 29.8201 63.9671 29.8201 84.4118C29.8201 105.009 32.3376 120.114 37.3724 129.726C42.4073 139.185 50.036 143.915 60.2583 143.915ZM203.435 167.945C192.907 167.945 182.685 166.343 172.767 163.139C162.85 159.783 154.764 155.282 148.508 149.637L158.121 127.208C172.005 137.889 186.957 143.229 202.977 143.229C212.589 143.229 220.065 140.787 225.405 135.905C230.898 130.87 233.644 124.157 233.644 115.766C233.644 107.221 231.05 100.356 225.863 95.1682C220.675 89.8282 213.581 87.1582 204.579 87.1582C191.763 87.1582 181.159 92.2693 172.767 102.492H153.086V4.31125H252.182V28.5703H181.693V72.2823C189.779 66.1794 199.697 63.128 211.445 63.128C221.667 63.128 230.516 65.3403 237.992 69.7649C245.621 74.0369 251.495 80.0635 255.614 87.8447C259.886 95.4734 262.022 104.399 262.022 114.621C262.022 125.149 259.658 134.456 254.928 142.542C250.198 150.476 243.409 156.731 234.559 161.308C225.863 165.733 215.488 167.945 203.435 167.945Z"/>
</mask>
<path d="M16.5463 146.433L15.4685 147.181L15.4722 147.187L16.5463 146.433ZM16.5463 23.0777L15.4799 22.3127L16.5463 23.0777ZM103.97 23.0777L102.898 23.835L102.904 23.8427L103.97 23.0777ZM103.97 146.433L105.044 147.187L105.048 147.181L103.97 146.433ZM83.1442 129.726L81.9816 129.117L81.978 129.124L83.1442 129.726ZM83.1442 40.0132L81.982 40.6229L81.988 40.6344L81.9943 40.6457L83.1442 40.0132ZM37.3724 40.0132L38.5224 40.6457L38.5268 40.6377L37.3724 40.0132ZM37.3724 129.726L36.2099 130.335L36.2139 130.343L37.3724 129.726ZM60.2583 167.945V166.633C41.5701 166.633 27.4201 159.636 17.6204 145.678L16.5463 146.433L15.4722 147.187C25.8121 161.913 40.8034 169.258 60.2583 169.258V167.945ZM16.5463 146.433L17.6241 145.684C7.76701 131.496 2.75402 111.202 2.75402 84.6407H1.44161H0.1292C0.1292 111.48 5.186 132.381 15.4685 147.181L16.5463 146.433ZM1.44161 84.6407H2.75402C2.75402 57.766 7.77011 37.5626 17.6127 23.8427L16.5463 23.0777L15.4799 22.3127C5.1829 36.6661 0.1292 57.5047 0.1292 84.6407H1.44161ZM16.5463 23.0777L17.6127 23.8427C27.4076 10.1892 41.5585 3.33507 60.2583 3.33507V2.02266V0.710251C40.815 0.710251 25.8246 7.89284 15.4799 22.3127L16.5463 23.0777ZM60.2583 2.02266V3.33507C79.1149 3.33507 93.2593 10.1917 102.899 23.835L103.97 23.0777L105.042 22.3204C94.8471 7.89027 79.85 0.710251 60.2583 0.710251V2.02266ZM103.97 23.0777L102.904 23.8427C112.747 37.5636 117.763 57.6917 117.763 84.4118H119.075H120.387C120.387 57.4265 115.333 36.6651 105.037 22.3127L103.97 23.0777ZM119.075 84.4118H117.763C117.763 111.128 112.749 131.497 102.893 145.684L103.97 146.433L105.048 147.181C115.331 132.38 120.387 111.401 120.387 84.4118H119.075ZM103.97 146.433L102.896 145.678C93.0966 159.636 78.9466 166.633 60.2583 166.633V167.945V169.258C79.7132 169.258 94.7046 161.913 105.044 147.187L103.97 146.433ZM60.2583 143.915V145.228C65.6513 145.228 70.3999 143.996 74.4526 141.483C78.5034 138.972 81.7808 135.229 84.3104 130.328L83.1442 129.726L81.978 129.124C79.6253 133.682 76.6473 137.034 73.0694 139.252C69.4935 141.469 65.2403 142.603 60.2583 142.603V143.915ZM83.1442 129.726L84.3068 130.335C89.4939 120.432 92.009 105.063 92.009 84.4118H90.6966H89.3842C89.3842 104.955 86.8644 119.795 81.9816 129.117L83.1442 129.726ZM90.6966 84.4118H92.009C92.009 63.9198 89.4961 48.8388 84.2942 39.3808L83.1442 40.0132L81.9943 40.6457C86.8621 49.4963 89.3842 64.0144 89.3842 84.4118H90.6966ZM83.1442 40.0132L84.3064 39.4035C81.7745 34.5771 78.4949 30.8933 74.4445 28.4225C70.393 25.9512 65.6475 24.7404 60.2583 24.7404V26.0528V27.3652C65.2441 27.3652 69.5004 28.4813 73.0776 30.6633C76.6557 32.846 79.6316 36.1424 81.982 40.6229L83.1442 40.0132ZM60.2583 26.0528V24.7404C54.9415 24.7404 50.2351 25.953 46.1866 28.4225C42.1406 30.8906 38.8255 34.5691 36.2181 39.3888L37.3724 40.0132L38.5268 40.6377C40.9543 36.1505 43.971 32.8487 47.5535 30.6633C51.1337 28.4794 55.3528 27.3652 60.2583 27.3652V26.0528ZM37.3724 40.0132L36.2225 39.3808C31.0206 48.8388 28.5077 63.9198 28.5077 84.4118H29.8201H31.1325C31.1325 64.0144 33.6546 49.4963 38.5224 40.6457L37.3724 40.0132ZM29.8201 84.4118H28.5077C28.5077 105.063 31.0228 120.432 36.2099 130.335L37.3724 129.726L38.535 129.117C33.6523 119.795 31.1325 104.955 31.1325 84.4118H29.8201ZM37.3724 129.726L36.2139 130.343C38.8191 135.237 42.1322 138.975 46.1785 141.483C50.2282 143.994 54.9375 145.228 60.2583 145.228V143.915V142.603C55.3568 142.603 51.1406 141.471 47.5616 139.252C43.9794 137.031 40.9607 133.674 38.531 129.109L37.3724 129.726ZM172.767 163.139L172.347 164.382L172.355 164.385L172.364 164.388L172.767 163.139ZM148.508 149.637L147.302 149.12L146.932 149.982L147.629 150.611L148.508 149.637ZM158.121 127.208L158.921 126.168L157.58 125.137L156.914 126.691L158.121 127.208ZM225.405 135.905L226.291 136.874L226.292 136.873L225.405 135.905ZM225.863 95.1682L224.921 96.0827L224.928 96.0895L224.935 96.0962L225.863 95.1682ZM172.767 102.492V103.804H173.388L173.782 103.324L172.767 102.492ZM153.086 102.492H151.773V103.804H153.086V102.492ZM153.086 4.31125V2.99884H151.773V4.31125H153.086ZM252.182 4.31125H253.494V2.99884H252.182V4.31125ZM252.182 28.5703V29.8827H253.494V28.5703H252.182ZM181.693 28.5703V27.2579H180.381V28.5703H181.693ZM181.693 72.2823H180.381V74.9171L182.484 73.3299L181.693 72.2823ZM237.992 69.7649L237.324 70.8943L237.337 70.9023L237.351 70.91L237.992 69.7649ZM255.614 87.8447L254.454 88.4588L254.462 88.4725L254.469 88.486L255.614 87.8447ZM254.928 142.542L256.055 143.214L256.061 143.205L254.928 142.542ZM234.559 161.308L235.155 162.478L235.162 162.474L234.559 161.308ZM203.435 167.945V166.633C193.043 166.633 182.956 165.052 173.171 161.89L172.767 163.139L172.364 164.388C182.413 167.635 192.771 169.258 203.435 169.258V167.945ZM172.767 163.139L173.188 161.896C163.401 158.583 155.482 154.162 149.388 148.662L148.508 149.637L147.629 150.611C154.046 156.401 162.3 160.982 172.347 164.382L172.767 163.139ZM148.508 149.637L149.715 150.154L159.327 127.725L158.121 127.208L156.914 126.691L147.302 149.12L148.508 149.637ZM158.121 127.208L157.32 128.249C171.411 139.088 186.64 144.541 202.977 144.541V143.229V141.916C187.274 141.916 172.598 136.689 158.921 126.168L158.121 127.208ZM202.977 143.229V144.541C212.807 144.541 220.638 142.042 226.291 136.874L225.405 135.905L224.519 134.936C219.492 139.533 212.371 141.916 202.977 141.916V143.229ZM225.405 135.905L226.292 136.873C232.091 131.556 234.956 124.473 234.956 115.766H233.644H232.332C232.332 123.84 229.704 130.184 224.518 134.938L225.405 135.905ZM233.644 115.766H234.956C234.956 106.935 232.265 99.7144 226.791 94.2402L225.863 95.1682L224.935 96.0962C229.835 100.997 232.332 107.508 232.332 115.766H233.644ZM225.863 95.1682L226.804 94.2537C221.319 88.6074 213.856 85.8457 204.579 85.8457V87.1582V88.4706C213.306 88.4706 220.031 91.0489 224.921 96.0827L225.863 95.1682ZM204.579 87.1582V85.8457C191.356 85.8457 180.385 91.1441 171.753 101.659L172.767 102.492L173.782 103.324C181.933 93.3945 192.17 88.4706 204.579 88.4706V87.1582ZM172.767 102.492V101.179H153.086V102.492V103.804H172.767V102.492ZM153.086 102.492H154.398V4.31125H153.086H151.773V102.492H153.086ZM153.086 4.31125V5.62365H252.182V4.31125V2.99884H153.086V4.31125ZM252.182 4.31125H250.869V28.5703H252.182H253.494V4.31125H252.182ZM252.182 28.5703V27.2579H181.693V28.5703V29.8827H252.182V28.5703ZM181.693 28.5703H180.381V72.2823H181.693H183.005V28.5703H181.693ZM181.693 72.2823L182.484 73.3299C190.307 67.4254 199.934 64.4404 211.445 64.4404V63.128V61.8156C199.459 61.8156 189.252 64.9335 180.902 71.2348L181.693 72.2823ZM211.445 63.128V64.4404C221.474 64.4404 230.083 66.6092 237.324 70.8943L237.992 69.7649L238.661 68.6355C230.949 64.0714 221.86 61.8156 211.445 61.8156V63.128ZM237.992 69.7649L237.351 70.91C244.758 75.0577 250.452 80.8992 254.454 88.4588L255.614 87.8447L256.774 87.2307C252.538 79.2279 246.484 73.0161 238.633 68.6198L237.992 69.7649ZM255.614 87.8447L254.469 88.486C258.614 95.8878 260.71 104.585 260.71 114.621H262.022H263.335C263.335 104.213 261.159 95.0589 256.759 87.2035L255.614 87.8447ZM262.022 114.621H260.71C260.71 124.945 258.393 134.018 253.795 141.879L254.928 142.542L256.061 143.205C260.922 134.893 263.335 125.352 263.335 114.621H262.022ZM254.928 142.542L253.801 141.87C249.206 149.577 242.606 155.669 233.956 160.143L234.559 161.308L235.162 162.474C244.211 157.794 251.19 151.375 256.055 143.214L254.928 142.542ZM234.559 161.308L233.964 160.139C225.49 164.45 215.329 166.633 203.435 166.633V167.945V169.258C215.647 169.258 226.235 167.016 235.154 162.478L234.559 161.308Z" fill="#0571EE" mask="url(#path-1-outside-1_14_131)"/>
</g>
</svg>
