<svg width="244" height="161" viewBox="0 0 244 161" fill="none" xmlns="http://www.w3.org/2000/svg">
<g opacity="0.3">
<mask id="path-1-outside-1_14_137" maskUnits="userSpaceOnUse" x="0.115173" y="0.656738" width="264" height="169" fill="black">
<rect fill="white" x="0.115173" y="0.656738" width="264" height="169"/>
<path d="M60.2583 167.945C41.1868 167.945 26.6161 160.774 16.5463 146.433C6.4765 131.938 1.44161 111.341 1.44161 84.6407C1.44161 57.6354 6.4765 37.1144 16.5463 23.0777C26.6161 9.041 41.1868 2.02266 60.2583 2.02266C79.4825 2.02266 94.0532 9.041 103.97 23.0777C114.04 37.1144 119.075 57.5591 119.075 84.4118C119.075 111.265 114.04 131.938 103.97 146.433C93.9006 160.774 79.3299 167.945 60.2583 167.945ZM60.2583 143.915C70.6333 143.915 78.2619 139.185 83.1442 129.726C88.1791 120.114 90.6966 105.009 90.6966 84.4118C90.6966 63.9671 88.1791 49.1676 83.1442 40.0132C78.2619 30.7063 70.6333 26.0528 60.2583 26.0528C50.036 26.0528 42.4073 30.7063 37.3724 40.0132C32.3376 49.1676 29.8201 63.9671 29.8201 84.4118C29.8201 105.009 32.3376 120.114 37.3724 129.726C42.4073 139.185 50.036 143.915 60.2583 143.915ZM208.012 167.945C188.025 167.945 172.539 160.927 161.553 146.89C150.721 132.854 145.304 113.172 145.304 87.8447C145.304 60.5342 151.407 39.4029 163.613 24.4508C175.972 9.49871 192.983 2.02266 214.649 2.02266C223.193 2.02266 231.66 3.62467 240.052 6.8287C248.443 9.88015 255.614 14.3048 261.565 20.1025L251.953 42.073C246.307 36.8855 240.281 33.0712 233.873 30.63C227.465 28.0363 220.904 26.7394 214.191 26.7394C200.917 26.7394 190.771 31.3929 183.753 40.6998C176.734 50.0067 173.225 63.8908 173.225 82.3521V88.989C176.429 80.5975 181.617 74.0369 188.788 69.3072C195.959 64.5774 204.197 62.2125 213.504 62.2125C222.811 62.2125 231.05 64.4248 238.221 68.8494C245.392 73.274 251.037 79.3769 255.157 87.1582C259.276 94.9394 261.336 103.865 261.336 113.935C261.336 124.31 259.047 133.616 254.47 141.855C250.045 149.942 243.79 156.35 235.704 161.08C227.77 165.657 218.539 167.945 208.012 167.945ZM206.41 144.602C214.649 144.602 221.286 141.932 226.32 136.592C231.508 131.099 234.102 123.928 234.102 115.079C234.102 106.23 231.508 99.0588 226.32 93.5662C221.286 88.0736 214.649 85.3273 206.41 85.3273C198.171 85.3273 191.458 88.0736 186.27 93.5662C181.235 99.0588 178.718 106.23 178.718 115.079C178.718 123.928 181.235 131.099 186.27 136.592C191.458 141.932 198.171 144.602 206.41 144.602Z"/>
</mask>
<path d="M16.5463 146.433L15.4685 147.181L15.4722 147.187L16.5463 146.433ZM16.5463 23.0777L15.4799 22.3127L16.5463 23.0777ZM103.97 23.0777L102.898 23.835L102.904 23.8427L103.97 23.0777ZM103.97 146.433L105.044 147.187L105.048 147.181L103.97 146.433ZM83.1442 129.726L81.9816 129.117L81.978 129.124L83.1442 129.726ZM83.1442 40.0132L81.982 40.6229L81.988 40.6344L81.9943 40.6457L83.1442 40.0132ZM37.3724 40.0132L38.5224 40.6457L38.5268 40.6377L37.3724 40.0132ZM37.3724 129.726L36.2099 130.335L36.2139 130.343L37.3724 129.726ZM60.2583 167.945V166.633C41.5701 166.633 27.4201 159.636 17.6204 145.678L16.5463 146.433L15.4722 147.187C25.8121 161.913 40.8034 169.258 60.2583 169.258V167.945ZM16.5463 146.433L17.6241 145.684C7.76701 131.496 2.75402 111.202 2.75402 84.6407H1.44161H0.1292C0.1292 111.48 5.186 132.381 15.4685 147.181L16.5463 146.433ZM1.44161 84.6407H2.75402C2.75402 57.766 7.77011 37.5626 17.6127 23.8427L16.5463 23.0777L15.4799 22.3127C5.1829 36.6661 0.1292 57.5047 0.1292 84.6407H1.44161ZM16.5463 23.0777L17.6127 23.8427C27.4076 10.1892 41.5585 3.33507 60.2583 3.33507V2.02266V0.710251C40.815 0.710251 25.8246 7.89284 15.4799 22.3127L16.5463 23.0777ZM60.2583 2.02266V3.33507C79.1149 3.33507 93.2593 10.1917 102.899 23.835L103.97 23.0777L105.042 22.3204C94.8471 7.89027 79.85 0.710251 60.2583 0.710251V2.02266ZM103.97 23.0777L102.904 23.8427C112.747 37.5636 117.763 57.6917 117.763 84.4118H119.075H120.387C120.387 57.4265 115.333 36.6651 105.037 22.3127L103.97 23.0777ZM119.075 84.4118H117.763C117.763 111.128 112.749 131.497 102.893 145.684L103.97 146.433L105.048 147.181C115.331 132.38 120.387 111.401 120.387 84.4118H119.075ZM103.97 146.433L102.896 145.678C93.0966 159.636 78.9466 166.633 60.2583 166.633V167.945V169.258C79.7132 169.258 94.7046 161.913 105.044 147.187L103.97 146.433ZM60.2583 143.915V145.228C65.6513 145.228 70.3999 143.996 74.4526 141.483C78.5034 138.972 81.7808 135.229 84.3104 130.328L83.1442 129.726L81.978 129.124C79.6253 133.682 76.6473 137.034 73.0694 139.252C69.4935 141.469 65.2403 142.603 60.2583 142.603V143.915ZM83.1442 129.726L84.3068 130.335C89.4939 120.432 92.009 105.063 92.009 84.4118H90.6966H89.3842C89.3842 104.955 86.8644 119.795 81.9816 129.117L83.1442 129.726ZM90.6966 84.4118H92.009C92.009 63.9198 89.4961 48.8388 84.2942 39.3808L83.1442 40.0132L81.9943 40.6457C86.8621 49.4963 89.3842 64.0144 89.3842 84.4118H90.6966ZM83.1442 40.0132L84.3064 39.4035C81.7745 34.5771 78.4949 30.8933 74.4445 28.4225C70.393 25.9512 65.6475 24.7404 60.2583 24.7404V26.0528V27.3652C65.2441 27.3652 69.5004 28.4813 73.0776 30.6633C76.6557 32.846 79.6316 36.1424 81.982 40.6229L83.1442 40.0132ZM60.2583 26.0528V24.7404C54.9415 24.7404 50.2351 25.953 46.1866 28.4225C42.1406 30.8906 38.8255 34.5691 36.2181 39.3888L37.3724 40.0132L38.5268 40.6377C40.9543 36.1505 43.971 32.8487 47.5535 30.6633C51.1337 28.4794 55.3528 27.3652 60.2583 27.3652V26.0528ZM37.3724 40.0132L36.2225 39.3808C31.0206 48.8388 28.5077 63.9198 28.5077 84.4118H29.8201H31.1325C31.1325 64.0144 33.6546 49.4963 38.5224 40.6457L37.3724 40.0132ZM29.8201 84.4118H28.5077C28.5077 105.063 31.0228 120.432 36.2099 130.335L37.3724 129.726L38.535 129.117C33.6523 119.795 31.1325 104.955 31.1325 84.4118H29.8201ZM37.3724 129.726L36.2139 130.343C38.8191 135.237 42.1322 138.975 46.1785 141.483C50.2282 143.994 54.9375 145.228 60.2583 145.228V143.915V142.603C55.3568 142.603 51.1406 141.471 47.5616 139.252C43.9794 137.031 40.9607 133.674 38.531 129.109L37.3724 129.726ZM161.553 146.89L160.514 147.692L160.52 147.699L161.553 146.89ZM163.613 24.4508L162.602 23.6147L162.596 23.6209L163.613 24.4508ZM240.052 6.8287L239.584 8.05478L239.594 8.05851L239.603 8.0621L240.052 6.8287ZM261.565 20.1025L262.767 20.6285L263.131 19.7964L262.481 19.1625L261.565 20.1025ZM251.953 42.073L251.065 43.0393L252.418 44.2831L253.155 42.599L251.953 42.073ZM233.873 30.63L233.38 31.8465L233.393 31.8516L233.406 31.8564L233.873 30.63ZM183.753 40.6998L184.801 41.49L183.753 40.6998ZM173.225 88.989H171.913L174.451 89.4572L173.225 88.989ZM188.788 69.3072L188.065 68.2116L188.788 69.3072ZM238.221 68.8494L238.91 67.7325L238.221 68.8494ZM254.47 141.855L253.323 141.218L253.319 141.225L254.47 141.855ZM235.704 161.08L236.36 162.216L236.366 162.212L235.704 161.08ZM226.32 136.592L225.366 135.691L225.366 135.691L226.32 136.592ZM226.32 93.5662L225.353 94.453L225.36 94.4602L225.366 94.4673L226.32 93.5662ZM186.27 93.5662L185.316 92.6651L185.309 92.6722L185.303 92.6794L186.27 93.5662ZM186.27 136.592L185.303 137.478L185.316 137.492L185.329 137.506L186.27 136.592ZM208.012 167.945V166.633C188.373 166.633 173.291 159.759 162.587 146.081L161.553 146.89L160.52 147.699C171.786 162.095 187.677 169.258 208.012 169.258V167.945ZM161.553 146.89L162.592 146.088C151.999 132.362 146.617 113.002 146.617 87.8447H145.304H143.992C143.992 113.341 149.443 133.346 160.514 147.692L161.553 146.89ZM145.304 87.8447H146.617C146.617 60.7134 152.681 39.9182 164.63 25.2808L163.613 24.4508L162.596 23.6209C150.134 38.8877 143.992 60.355 143.992 87.8447H145.304ZM163.613 24.4508L164.625 25.2869C176.703 10.6741 193.323 3.33507 214.649 3.33507V2.02266V0.710251C192.644 0.710251 175.24 8.32328 162.602 23.6147L163.613 24.4508ZM214.649 2.02266V3.33507C223.025 3.33507 231.334 4.90486 239.584 8.05478L240.052 6.8287L240.52 5.60262C231.987 2.34449 223.361 0.710251 214.649 0.710251V2.02266ZM240.052 6.8287L239.603 8.0621C247.833 11.0548 254.841 15.3841 260.649 21.0425L261.565 20.1025L262.481 19.1625C256.387 13.2254 249.054 8.70551 240.5 5.59531L240.052 6.8287ZM261.565 20.1025L260.362 19.5765L250.75 41.5469L251.953 42.073L253.155 42.599L262.767 20.6285L261.565 20.1025ZM251.953 42.073L252.841 41.1066C247.087 35.8198 240.921 31.9106 234.34 29.4036L233.873 30.63L233.406 31.8564C239.641 34.2318 245.528 37.9512 251.065 43.0393L251.953 42.073ZM233.873 30.63L234.365 29.4135C227.805 26.7583 221.078 25.427 214.191 25.427V26.7394V28.0518C220.73 28.0518 227.124 29.3142 233.38 31.8465L233.873 30.63ZM214.191 26.7394V25.427C200.57 25.427 190.008 30.225 182.705 39.9096L183.753 40.6998L184.801 41.49C191.534 32.5607 201.264 28.0518 214.191 28.0518V26.7394ZM183.753 40.6998L182.705 39.9096C175.44 49.5428 171.913 63.7606 171.913 82.3521H173.225H174.538C174.538 64.0211 178.028 50.4707 184.801 41.49L183.753 40.6998ZM173.225 82.3521H171.913V88.989H173.225H174.538V82.3521H173.225ZM173.225 88.989L174.451 89.4572C177.562 81.3099 182.58 74.974 189.51 70.4027L188.788 69.3072L188.065 68.2116C180.654 73.0998 175.296 79.8852 171.999 88.5209L173.225 88.989ZM188.788 69.3072L189.51 70.4027C196.449 65.8263 204.432 63.5249 213.504 63.5249V62.2125V60.9001C203.963 60.9001 195.468 63.3286 188.065 68.2116L188.788 69.3072ZM213.504 62.2125V63.5249C222.594 63.5249 230.589 65.6827 237.532 69.9664L238.221 68.8494L238.91 67.7325C231.511 63.167 223.028 60.9001 213.504 60.9001V62.2125ZM238.221 68.8494L237.532 69.9664C244.495 74.2626 249.982 80.1879 253.997 87.7722L255.157 87.1582L256.317 86.5441C252.093 78.566 246.289 72.2855 238.91 67.7325L238.221 68.8494ZM255.157 87.1582L253.997 87.7722C258.003 95.3386 260.023 104.048 260.023 113.935H261.336H262.648C262.648 103.682 260.55 94.5401 256.317 86.5441L255.157 87.1582ZM261.336 113.935H260.023C260.023 124.11 257.781 133.193 253.323 141.218L254.47 141.855L255.617 142.493C260.313 134.04 262.648 124.51 262.648 113.935H261.336ZM254.47 141.855L253.319 141.225C249.01 149.099 242.925 155.335 235.041 159.947L235.704 161.08L236.366 162.212C244.655 157.365 251.081 150.784 255.621 142.485L254.47 141.855ZM235.704 161.08L235.048 159.943C227.342 164.389 218.344 166.633 208.012 166.633V167.945V169.258C218.735 169.258 228.198 166.925 236.36 162.216L235.704 161.08ZM206.41 144.602V145.914C214.961 145.914 221.961 143.129 227.275 137.492L226.32 136.592L225.366 135.691C220.61 140.735 214.336 143.289 206.41 143.289V144.602ZM226.32 136.592L227.275 137.493C232.731 131.715 235.414 124.202 235.414 115.079H234.102H232.789C232.789 123.654 230.285 130.483 225.366 135.691L226.32 136.592ZM234.102 115.079H235.414C235.414 105.956 232.731 98.4425 227.275 92.6651L226.32 93.5662L225.366 94.4673C230.285 99.6751 232.789 106.503 232.789 115.079H234.102ZM226.32 93.5662L227.288 92.6794C221.977 86.8852 214.973 84.0149 206.41 84.0149V85.3273V86.6397C214.324 86.6397 220.595 89.2619 225.353 94.453L226.32 93.5662ZM206.41 85.3273V84.0149C197.846 84.0149 190.775 86.8847 185.316 92.6651L186.27 93.5662L187.224 94.4673C192.14 89.2625 198.496 86.6397 206.41 86.6397V85.3273ZM186.27 93.5662L185.303 92.6794C180.005 98.4582 177.405 105.967 177.405 115.079H178.718H180.03C180.03 106.493 182.465 99.6594 187.238 94.453L186.27 93.5662ZM178.718 115.079H177.405C177.405 124.191 180.005 131.7 185.303 137.478L186.27 136.592L187.238 135.705C182.465 130.498 180.03 123.665 180.03 115.079H178.718ZM186.27 136.592L185.329 137.506C190.791 143.129 197.858 145.914 206.41 145.914V144.602V143.289C198.484 143.289 192.124 140.734 187.212 135.677L186.27 136.592Z" fill="#0571EE" mask="url(#path-1-outside-1_14_137)"/>
</g>
</svg>
