<svg width="190" height="56" viewBox="0 0 190 56" fill="none" xmlns="http://www.w3.org/2000/svg">
<path d="M16.3167 50.6808C16.9708 52.3821 19.3739 52.3932 20.0436 50.6979L29.2163 27.4777C29.7348 26.1652 28.7674 24.7429 27.3562 24.7429H23.0264C22.1988 24.7429 21.4566 24.2332 21.1596 23.4607L13.9799 4.7891C13.3258 3.08789 10.9228 3.07688 10.2531 4.77203L1.08049 27.9892C0.561921 29.3018 1.52928 30.7241 2.94058 30.7241H7.2702C8.09784 30.7241 8.83998 31.2339 9.13699 32.0064L16.3167 50.6808Z" fill="url(#paint0_linear_166_146)"/>
<path d="M89.6069 34.5298H88.061C87.9191 34.5296 87.7962 34.4787 87.6929 34.3755C87.5894 34.272 87.5377 34.1486 87.5376 34.0063V30.7427H89.6069V34.5298ZM93.6528 20.9409C95.5422 20.9409 97.0955 21.4133 98.312 22.3579C99.5414 23.2897 100.156 24.5974 100.156 26.2798V29.1724C100.156 30.9323 99.5611 32.2655 98.3706 33.1714C97.18 34.0773 95.6135 34.5297 93.6724 34.5298H90.9077V30.7427H92.3911V30.7446H93.6528C94.0928 30.7446 94.4419 30.6148 94.7007 30.356C94.9724 30.0842 95.1088 29.6899 95.1089 29.1724V26.2798C95.1089 25.2444 94.6234 24.7271 93.6528 24.7271H90.9077V20.9409H93.6528ZM89.6069 24.7271H87.5376V21.4644C87.5378 21.3224 87.5897 21.1995 87.6929 21.0962C87.7962 20.993 87.9191 20.9411 88.061 20.9409H89.6069V24.7271Z" fill="white"/>
<path d="M177.457 20.9409H188.833C188.976 20.9409 189.099 20.9927 189.202 21.0962C189.306 21.1998 189.358 21.3227 189.358 21.4651V24.5906C189.358 24.733 189.306 24.8559 189.202 24.9595C189.099 25.063 188.976 25.1148 188.833 25.1148H185.611V34.0061C185.611 34.1485 185.559 34.2714 185.456 34.375C185.352 34.4785 185.229 34.5303 185.087 34.5303H181.204C181.062 34.5303 180.939 34.4785 180.835 34.375C180.732 34.2714 180.68 34.1485 180.68 34.0061V25.1148H177.457C177.315 25.1148 177.192 25.063 177.088 24.9595C176.985 24.8559 176.933 24.733 176.933 24.5906V21.4651C176.933 21.3227 176.985 21.1998 177.088 21.0962C177.192 20.9927 177.315 20.9409 177.457 20.9409Z" fill="white"/>
<path d="M173.6 34.5303H169.639C169.497 34.5303 169.374 34.4785 169.271 34.375C169.167 34.2714 169.115 34.1485 169.115 34.0061V21.4651C169.115 21.3227 169.167 21.1998 169.271 21.0962C169.374 20.9927 169.497 20.9409 169.639 20.9409H173.6C173.742 20.9409 173.865 20.9927 173.969 21.0962C174.072 21.1998 174.124 21.3227 174.124 21.4651V34.0061C174.124 34.1485 174.072 34.2714 173.969 34.375C173.865 34.4785 173.742 34.5303 173.6 34.5303Z" fill="white"/>
<path d="M161.587 20.9409H165.101C165.244 20.9409 165.367 20.9927 165.47 21.0962C165.574 21.1998 165.625 21.3227 165.625 21.4651V34.0061C165.625 34.1485 165.574 34.2714 165.47 34.375C165.367 34.4785 165.244 34.5303 165.101 34.5303H162.034C161.697 34.5303 161.432 34.3814 161.238 34.0838L157.957 29.1333V34.0061C157.957 34.1485 157.905 34.2714 157.802 34.375C157.698 34.4785 157.575 34.5303 157.433 34.5303H153.919C153.777 34.5303 153.654 34.4785 153.55 34.375C153.447 34.2714 153.395 34.1485 153.395 34.0061V21.4651C153.395 21.3227 153.447 21.1998 153.55 21.0962C153.654 20.9927 153.777 20.9409 153.919 20.9409H156.986C157.349 20.9409 157.614 21.0898 157.782 21.3874L161.063 26.7649V21.4651C161.063 21.3227 161.115 21.1998 161.219 21.0962C161.322 20.9927 161.445 20.9409 161.587 20.9409Z" fill="white"/>
<path d="M144.417 26.3376H149.755C149.898 26.3376 150.021 26.3894 150.124 26.4929C150.228 26.5965 150.28 26.7194 150.28 26.8618V29.3855C150.28 31.0939 149.671 32.414 148.455 33.3458C147.238 34.2647 145.614 34.7242 143.582 34.7242C141.563 34.7242 139.971 34.2777 138.806 33.3847C137.641 32.4787 137.059 31.1263 137.059 29.3273V26.0658C137.059 24.3445 137.654 23.0309 138.845 22.1249C140.036 21.206 141.621 20.7466 143.601 20.7466C145.594 20.7466 147.206 21.1672 148.435 22.0084C149.665 22.8368 150.28 23.8592 150.28 25.0758C150.28 25.1922 150.234 25.2958 150.144 25.3864C150.066 25.464 149.969 25.5029 149.852 25.5029H145.562C145.303 25.5029 145.116 25.4317 144.999 25.2893C144.74 24.9528 144.546 24.7587 144.417 24.7069C144.119 24.5904 143.847 24.5322 143.601 24.5322C142.605 24.5322 142.107 25.0175 142.107 25.9882V29.2885C142.107 30.3885 142.637 30.9386 143.698 30.9386C144.786 30.9386 145.329 30.4727 145.329 29.5408H144.417C144.274 29.5408 144.151 29.4891 144.048 29.3855C143.944 29.282 143.893 29.159 143.893 29.0167V26.8618C143.893 26.7194 143.944 26.5965 144.048 26.4929C144.151 26.3894 144.274 26.3376 144.417 26.3376Z" fill="white"/>
<path d="M125.486 20.9409H129.699C130.164 20.9409 130.456 21.1545 130.572 21.5816L134.901 33.9673C134.914 34.0061 134.921 34.0708 134.921 34.1614C134.921 34.2391 134.875 34.3232 134.785 34.4138C134.707 34.4914 134.61 34.5303 134.494 34.5303H130.902C130.514 34.5303 130.262 34.3685 130.145 34.0449L129.679 32.7636H125.505L125.039 34.0449C124.923 34.3685 124.671 34.5303 124.282 34.5303H120.691C120.574 34.5303 120.471 34.4914 120.38 34.4138C120.302 34.3232 120.264 34.2391 120.264 34.1614C120.264 34.0708 120.27 34.0061 120.283 33.9673L124.612 21.5816C124.729 21.1545 125.02 20.9409 125.486 20.9409ZM126.495 28.978H128.689L127.582 25.3672L126.495 28.978Z" fill="white"/>
<path d="M114.149 20.9409H117.216C117.358 20.9409 117.481 20.9927 117.585 21.0962C117.688 21.1998 117.74 21.3227 117.74 21.4651V34.0061C117.74 34.1485 117.688 34.2714 117.585 34.375C117.481 34.4785 117.358 34.5303 117.216 34.5303H113.702C113.56 34.5303 113.437 34.4785 113.333 34.375C113.23 34.2714 113.178 34.1485 113.178 34.0061V28.6868L111.897 30.7835C111.69 31.107 111.45 31.2688 111.178 31.2688H109.82C109.548 31.2688 109.308 31.107 109.101 30.7835L107.82 28.6868V34.0061C107.82 34.1485 107.768 34.2714 107.665 34.375C107.561 34.4785 107.438 34.5303 107.296 34.5303H103.782C103.64 34.5303 103.517 34.4785 103.413 34.375C103.31 34.2714 103.258 34.1485 103.258 34.0061V21.4651C103.258 21.3227 103.31 21.1998 103.413 21.0962C103.517 20.9927 103.64 20.9409 103.782 20.9409H106.849C107.212 20.9409 107.49 21.1156 107.684 21.4651L110.499 26.1243L113.314 21.4651C113.508 21.1156 113.786 20.9409 114.149 20.9409Z" fill="white"/>
<path d="M75.5757 20.9409H79.7884C80.2543 20.9409 80.5455 21.1545 80.662 21.5816L84.9912 33.9673C85.0041 34.0061 85.0106 34.0708 85.0106 34.1614C85.0106 34.2391 84.9653 34.3232 84.8747 34.4138C84.797 34.4914 84.7 34.5303 84.5835 34.5303H80.992C80.6038 34.5303 80.3514 34.3685 80.2349 34.0449L79.769 32.7636H75.5951L75.1292 34.0449C75.0127 34.3685 74.7603 34.5303 74.3721 34.5303H70.7806C70.6641 34.5303 70.5606 34.4914 70.47 34.4138C70.3923 34.3232 70.3535 34.2391 70.3535 34.1614C70.3535 34.0708 70.36 34.0061 70.3729 33.9673L74.7021 21.5816C74.8186 21.1545 75.1098 20.9409 75.5757 20.9409ZM76.5852 28.978H78.7789L77.6723 25.3672L76.5852 28.978Z" fill="white"/>
<path d="M61.5147 30.7447H67.494C67.6363 30.7447 67.7593 30.7964 67.8628 30.9C67.9664 31.0035 68.0181 31.1265 68.0181 31.2688V34.0061C68.0181 34.1485 67.9664 34.2714 67.8628 34.375C67.7593 34.4785 67.6363 34.5303 67.494 34.5303H57.3796C57.2373 34.5303 57.1143 34.4785 57.0108 34.375C56.9072 34.2714 56.8555 34.1485 56.8555 34.0061V21.4651C56.8555 21.3227 56.9072 21.1998 57.0108 21.0962C57.1143 20.9927 57.2373 20.9409 57.3796 20.9409H67.3387C67.481 20.9409 67.604 20.9927 67.7075 21.0962C67.8111 21.1998 67.8628 21.3227 67.8628 21.4651V24.2024C67.8628 24.3447 67.8111 24.4677 67.7075 24.5712C67.604 24.6748 67.481 24.7265 67.3387 24.7265H61.5147V25.9496H66.9116C67.0539 25.9496 67.1769 26.0013 67.2804 26.1049C67.384 26.2084 67.4357 26.3314 67.4357 26.4737V28.9975C67.4357 29.1398 67.384 29.2628 67.2804 29.3663C67.1769 29.4698 67.0539 29.5216 66.9116 29.5216H61.5147V30.7447Z" fill="white"/>
<path d="M48.2274 30.5505H53.6049C53.7472 30.5505 53.8702 30.6023 53.9737 30.7058C54.0773 30.8094 54.129 30.9323 54.129 31.0747V34.0061C54.129 34.1485 54.0773 34.2714 53.9737 34.375C53.8702 34.4785 53.7472 34.5303 53.6049 34.5303H43.8205C43.6782 34.5303 43.5552 34.4785 43.4517 34.375C43.3482 34.2714 43.2964 34.1485 43.2964 34.0061V21.4651C43.2964 21.3227 43.3482 21.1998 43.4517 21.0962C43.5552 20.9927 43.6782 20.9409 43.8205 20.9409H47.7032C47.8456 20.9409 47.9685 20.9927 48.0721 21.0962C48.1756 21.1998 48.2274 21.3227 48.2274 21.4651V30.5505Z" fill="white"/>
<defs>
<linearGradient id="paint0_linear_166_146" x1="17.8829" y1="-37.7399" x2="51.6619" y2="-30.2103" gradientUnits="userSpaceOnUse">
<stop stop-color="#005EFF"/>
<stop offset="1" stop-color="#0C91D3"/>
</linearGradient>
</defs>
</svg>
