<svg width="190" height="56" viewBox="0 0 190 56" fill="none" xmlns="http://www.w3.org/2000/svg">
<path d="M16.3167 50.6808C16.9708 52.3821 19.3739 52.3932 20.0436 50.6979L29.2163 27.4777C29.7348 26.1652 28.7674 24.7429 27.3562 24.7429H23.0264C22.1988 24.7429 21.4566 24.2332 21.1596 23.4607L13.9799 4.7891C13.3258 3.08789 10.9228 3.07688 10.2531 4.77203L1.08049 27.9892C0.561921 29.3018 1.52928 30.7241 2.94058 30.7241H7.2702C8.09784 30.7241 8.83998 31.2339 9.13699 32.0064L16.3167 50.6808Z" fill="url(#paint0_linear_4_857)"/>
<path d="M89.6071 34.5295H88.0612C87.9193 34.5293 87.7964 34.4784 87.6931 34.3752C87.5896 34.2718 87.5379 34.1483 87.5378 34.0061V30.7424H89.6071V34.5295ZM93.653 20.9407C95.5425 20.9407 97.0957 21.413 98.3122 22.3577C99.5416 23.2895 100.156 24.5971 100.156 26.2795V29.1721C100.156 30.932 99.5613 32.2652 98.3708 33.1711C97.1802 34.077 95.6137 34.5295 93.6726 34.5295H90.9079V30.7424H92.3913V30.7444H93.653C94.093 30.7444 94.4421 30.6145 94.7009 30.3557C94.9726 30.084 95.1091 29.6897 95.1091 29.1721V26.2795C95.1091 25.2442 94.6236 24.7268 93.653 24.7268H90.9079V20.9407H93.653ZM89.6071 24.7268H87.5378V21.4641C87.538 21.3222 87.5899 21.1992 87.6931 21.0959C87.7964 20.9928 87.9193 20.9408 88.0612 20.9407H89.6071V24.7268Z" fill="black"/>
<path d="M177.457 20.9407H188.834C188.976 20.9407 189.099 20.9924 189.202 21.096C189.306 21.1995 189.358 21.3225 189.358 21.4648V24.5904C189.358 24.7327 189.306 24.8557 189.202 24.9592C189.099 25.0628 188.976 25.1145 188.834 25.1145H185.611V34.0058C185.611 34.1482 185.559 34.2712 185.456 34.3747C185.352 34.4782 185.229 34.53 185.087 34.53H181.204C181.062 34.53 180.939 34.4782 180.835 34.3747C180.732 34.2712 180.68 34.1482 180.68 34.0058V25.1145H177.457C177.315 25.1145 177.192 25.0628 177.089 24.9592C176.985 24.8557 176.933 24.7327 176.933 24.5904V21.4648C176.933 21.3225 176.985 21.1995 177.089 21.096C177.192 20.9924 177.315 20.9407 177.457 20.9407Z" fill="black"/>
<path d="M173.6 34.53H169.64C169.497 34.53 169.374 34.4782 169.271 34.3747C169.167 34.2712 169.116 34.1482 169.116 34.0058V21.4648C169.116 21.3225 169.167 21.1995 169.271 21.096C169.374 20.9924 169.497 20.9407 169.64 20.9407H173.6C173.742 20.9407 173.865 20.9924 173.969 21.096C174.072 21.1995 174.124 21.3225 174.124 21.4648V34.0058C174.124 34.1482 174.072 34.2712 173.969 34.3747C173.865 34.4782 173.742 34.53 173.6 34.53Z" fill="black"/>
<path d="M161.588 20.9407H165.102C165.244 20.9407 165.367 20.9924 165.47 21.096C165.574 21.1995 165.626 21.3225 165.626 21.4648V34.0058C165.626 34.1482 165.574 34.2712 165.47 34.3747C165.367 34.4782 165.244 34.53 165.102 34.53H162.034C161.698 34.53 161.432 34.3812 161.238 34.0835L157.957 29.1331V34.0058C157.957 34.1482 157.906 34.2712 157.802 34.3747C157.699 34.4782 157.576 34.53 157.433 34.53H153.919C153.777 34.53 153.654 34.4782 153.551 34.3747C153.447 34.2712 153.395 34.1482 153.395 34.0058V21.4648C153.395 21.3225 153.447 21.1995 153.551 21.096C153.654 20.9924 153.777 20.9407 153.919 20.9407H156.987C157.349 20.9407 157.614 21.0895 157.783 21.3872L161.064 26.7647V21.4648C161.064 21.3225 161.115 21.1995 161.219 21.096C161.322 20.9924 161.445 20.9407 161.588 20.9407Z" fill="black"/>
<path d="M144.417 26.3376H149.756C149.898 26.3376 150.021 26.3893 150.124 26.4929C150.228 26.5964 150.28 26.7194 150.28 26.8617V29.3855C150.28 31.0938 149.672 32.4139 148.455 33.3458C147.238 34.2647 145.614 34.7241 143.582 34.7241C141.563 34.7241 139.971 34.2776 138.806 33.3846C137.642 32.4787 137.059 31.1262 137.059 29.3272V26.0658C137.059 24.3445 137.655 23.0308 138.845 22.1249C140.036 21.206 141.621 20.7465 143.602 20.7465C145.595 20.7465 147.206 21.1671 148.436 22.0084C149.665 22.8367 150.28 23.8591 150.28 25.0757C150.28 25.1922 150.234 25.2957 150.144 25.3863C150.066 25.464 149.969 25.5028 149.853 25.5028H145.562C145.303 25.5028 145.116 25.4316 144.999 25.2892C144.741 24.9527 144.546 24.7586 144.417 24.7068C144.119 24.5904 143.847 24.5321 143.602 24.5321C142.605 24.5321 142.107 25.0175 142.107 25.9881V29.2884C142.107 30.3885 142.637 30.9385 143.699 30.9385C144.786 30.9385 145.329 30.4726 145.329 29.5408H144.417C144.275 29.5408 144.152 29.489 144.048 29.3855C143.945 29.2819 143.893 29.159 143.893 29.0166V26.8617C143.893 26.7194 143.945 26.5964 144.048 26.4929C144.152 26.3893 144.275 26.3376 144.417 26.3376Z" fill="black"/>
<path d="M125.486 20.9407H129.699C130.165 20.9407 130.456 21.1542 130.572 21.5813L134.901 33.967C134.914 34.0058 134.921 34.0706 134.921 34.1611C134.921 34.2388 134.875 34.3229 134.785 34.4135C134.707 34.4912 134.61 34.53 134.494 34.53H130.902C130.514 34.53 130.262 34.3682 130.145 34.0447L129.679 32.7634H125.505L125.039 34.0447C124.923 34.3682 124.671 34.53 124.282 34.53H120.691C120.574 34.53 120.471 34.4912 120.38 34.4135C120.303 34.3229 120.264 34.2388 120.264 34.1611C120.264 34.0706 120.27 34.0058 120.283 33.967L124.612 21.5813C124.729 21.1542 125.02 20.9407 125.486 20.9407ZM126.495 28.9778H128.689L127.583 25.3669L126.495 28.9778Z" fill="black"/>
<path d="M114.149 20.9407H117.216C117.359 20.9407 117.482 20.9924 117.585 21.096C117.689 21.1995 117.74 21.3225 117.74 21.4648V34.0058C117.74 34.1482 117.689 34.2712 117.585 34.3747C117.482 34.4782 117.359 34.53 117.216 34.53H113.702C113.56 34.53 113.437 34.4782 113.334 34.3747C113.23 34.2712 113.178 34.1482 113.178 34.0058V28.6866L111.897 30.7832C111.69 31.1068 111.451 31.2686 111.179 31.2686H109.82C109.548 31.2686 109.309 31.1068 109.101 30.7832L107.82 28.6866V34.0058C107.82 34.1482 107.768 34.2712 107.665 34.3747C107.561 34.4782 107.438 34.53 107.296 34.53H103.782C103.64 34.53 103.517 34.4782 103.413 34.3747C103.31 34.2712 103.258 34.1482 103.258 34.0058V21.4648C103.258 21.3225 103.31 21.1995 103.413 21.096C103.517 20.9924 103.64 20.9407 103.782 20.9407H106.85C107.212 20.9407 107.49 21.1154 107.684 21.4648L110.499 26.124L113.314 21.4648C113.508 21.1154 113.787 20.9407 114.149 20.9407Z" fill="black"/>
<path d="M75.5762 20.9407H79.7889C80.2548 20.9407 80.546 21.1542 80.6625 21.5813L84.9916 33.967C85.0046 34.0058 85.011 34.0706 85.011 34.1611C85.011 34.2388 84.9658 34.3229 84.8752 34.4135C84.7975 34.4912 84.7004 34.53 84.584 34.53H80.9925C80.6042 34.53 80.3518 34.3682 80.2354 34.0447L79.7694 32.7634H75.5956L75.1297 34.0447C75.0132 34.3682 74.7608 34.53 74.3725 34.53H70.7811C70.6646 34.53 70.561 34.4912 70.4705 34.4135C70.3928 34.3229 70.354 34.2388 70.354 34.1611C70.354 34.0706 70.3604 34.0058 70.3734 33.967L74.7026 21.5813C74.819 21.1542 75.1102 20.9407 75.5762 20.9407ZM76.5857 28.9778H78.7794L77.6728 25.3669L76.5857 28.9778Z" fill="black"/>
<path d="M61.5148 30.7444H67.4941C67.6365 30.7444 67.7595 30.7962 67.863 30.8997C67.9665 31.0032 68.0183 31.1262 68.0183 31.2686V34.0058C68.0183 34.1482 67.9665 34.2712 67.863 34.3747C67.7595 34.4782 67.6365 34.53 67.4941 34.53H57.3798C57.2374 34.53 57.1145 34.4782 57.0109 34.3747C56.9074 34.2712 56.8556 34.1482 56.8556 34.0058V21.4648C56.8556 21.3225 56.9074 21.1995 57.0109 21.096C57.1145 20.9924 57.2374 20.9407 57.3798 20.9407H67.3388C67.4812 20.9407 67.6042 20.9924 67.7077 21.096C67.8112 21.1995 67.863 21.3225 67.863 21.4648V24.2021C67.863 24.3445 67.8112 24.4674 67.7077 24.571C67.6042 24.6745 67.4812 24.7263 67.3388 24.7263H61.5148V25.9493H66.9117C67.0541 25.9493 67.1771 26.0011 67.2806 26.1046C67.3841 26.2081 67.4359 26.3311 67.4359 26.4735V28.9972C67.4359 29.1396 67.3841 29.2625 67.2806 29.3661C67.1771 29.4696 67.0541 29.5214 66.9117 29.5214H61.5148V30.7444Z" fill="black"/>
<path d="M48.2276 30.5503H53.6051C53.7475 30.5503 53.8704 30.602 53.974 30.7056C54.0775 30.8091 54.1293 30.9321 54.1293 31.0744V34.0058C54.1293 34.1482 54.0775 34.2712 53.974 34.3747C53.8704 34.4782 53.7475 34.53 53.6051 34.53H43.8208C43.6784 34.53 43.5555 34.4782 43.4519 34.3747C43.3484 34.2712 43.2966 34.1482 43.2966 34.0058V21.4648C43.2966 21.3225 43.3484 21.1995 43.4519 21.096C43.5555 20.9924 43.6784 20.9407 43.8208 20.9407H47.7035C47.8458 20.9407 47.9688 20.9924 48.0723 21.096C48.1759 21.1995 48.2276 21.3225 48.2276 21.4648V30.5503Z" fill="black"/>
<defs>
<linearGradient id="paint0_linear_4_857" x1="17.8829" y1="-37.7399" x2="51.6619" y2="-30.2103" gradientUnits="userSpaceOnUse">
<stop stop-color="#005EFF"/>
<stop offset="1" stop-color="#0C91D3"/>
</linearGradient>
</defs>
</svg>
